# xmcd
#
# Track frame offsets:
#	150
#	18387
#	35965
#	52617
#
# Disc length: 939 seconds
#
# Revision: 1
# Processed by: cddbd v1.5.2PL0 Copyright (c) Steve Scherf et al.
# Submitted via: EasyCDDAExtractor 11.0.2.1
#
DISCID=2903a904
DTITLE=Xavier - Purely Sexuel (1995)
DYEAR=1995
DGENRE=Top 40
TTITLE0=Purely Sexuel (Album Edition)
TTITLE1=Purely Sexuel II
TTITLE2=Purely Sexuel (Dead From Sex Edition)
TTITLE3=Ohh Baby Move (Non-LP Bonus Track)
EXTD=
EXTT0=
EXTT1=
EXTT2=
EXTT3=
PLAYORDER=
